<svg width="64" height="64" viewBox="0 0 64 64" fill="none" xmlns="http://www.w3.org/2000/svg">
<g clip-path="url(#clip0_53_175)">
<path d="M50 0H14C6.26801 0 0 6.26801 0 14V50C0 57.732 6.26801 64 14 64H50C57.732 64 64 57.732 64 50V14C64 6.26801 57.732 0 50 0Z" fill="#0D1526"/>
<path d="M20.7788 39.5703C19.6409 42.3867 21.0016 45.5923 23.818 46.7302C26.6344 47.8681 29.8399 46.5074 30.9778 43.691L38.8446 24.2202C39.9824 21.4038 38.6218 18.1982 35.8054 17.0603C32.989 15.9224 29.7834 17.2831 28.6455 20.0995L20.7788 39.5703Z" fill="#4370FF"/>
<path d="M37.1848 39.5703C36.0469 42.3867 37.4076 45.5923 40.224 46.7302C43.0404 47.8681 46.2459 46.5074 47.3838 43.691L55.2506 24.2202C56.3885 21.4038 55.0278 18.1982 52.2114 17.0603C49.395 15.9224 46.1894 17.2831 45.0515 20.0995L37.1848 39.5703Z" fill="#F16043"/>
<path d="M20.2397 43.7961C21.3776 46.6124 24.5831 47.9731 27.3995 46.8352C30.2159 45.6973 31.5766 42.4918 30.4387 39.6754L22.5719 20.2045C21.4341 17.3881 18.2285 16.0275 15.4121 17.1654C12.5957 18.3032 11.235 21.5088 12.3729 24.3252L20.2397 43.7961Z" fill="#64D983"/>
<circle cx="25.3126" cy="42" r="3" fill="#0D1526"/>
<path d="M36.6457 43.7961C37.7836 46.6124 40.9891 47.9731 43.8055 46.8352C46.6219 45.6973 47.9826 42.4918 46.8447 39.6754L38.978 20.2045C37.8401 17.3881 34.6345 16.0275 31.8181 17.1654C29.0017 18.3032 27.641 21.5088 28.7789 24.3252L36.6457 43.7961Z" fill="#F6C656"/>
<circle cx="42.0001" cy="42" r="3" fill="#0D1526"/>
</g>
<defs>
<clipPath id="clip0_53_175">
<rect width="64" height="64" fill="white"/>
</clipPath>
</defs>
</svg>
