<svg width="99" height="20" viewBox="0 0 99 20" fill="none" xmlns="http://www.w3.org/2000/svg">
<path d="M7.54695 19.3841H7.54223L7.54433 19.3836L7.54695 19.3841Z" fill="#4370FF"/>
<path d="M24.5183 0.00488281C24.7373 0.00490956 24.9566 0.046365 25.1665 0.119643C26.1522 0.481655 26.6636 1.57632 26.3031 2.56576L20.661 18.1285C20.3871 18.8799 19.6704 19.3841 18.8762 19.3841H18.8715C18.8685 19.3841 18.8656 19.3836 18.8626 19.3836C18.8595 19.3836 18.8562 19.3841 18.8531 19.3841C18.059 19.384 17.3376 18.8798 17.0683 18.1285L13.209 7.48209L9.34957 18.1285C9.07568 18.8799 8.35901 19.3841 7.56476 19.3841H7.56057C7.55608 19.3841 7.55143 19.3831 7.54695 19.383L7.54433 19.3836C6.75101 19.3826 6.03119 18.8791 5.76214 18.1285L0.11533 2.56576C-0.0580853 2.08475 -0.0352637 1.56695 0.17926 1.10427C0.393785 0.64165 0.777298 0.293741 1.25192 0.119643C1.46188 0.0417677 1.68105 0.00489015 1.90013 0.00488281C2.69439 0.00488281 3.41562 0.509089 3.68494 1.26043L7.55114 11.9247L11.4173 1.2599C11.6325 0.669646 12.1216 0.233453 12.7085 0.0730051C12.7159 0.0709635 12.7232 0.0686633 12.7305 0.0667169C12.7773 0.0545301 12.8246 0.0438863 12.8725 0.0352758C12.8776 0.0343612 12.8827 0.0335279 12.8877 0.0326557C12.9341 0.0247113 12.9809 0.0182732 13.0282 0.0137911C13.0355 0.0130904 13.0428 0.0117859 13.0502 0.011171C13.102 0.00687052 13.1542 0.00488419 13.2069 0.00488281H13.2116C13.4285 0.00490557 13.6395 0.0439046 13.8378 0.113878C13.8435 0.115815 13.8494 0.117135 13.8551 0.119119C13.8646 0.1226 13.874 0.126507 13.8834 0.130123C14.3905 0.323728 14.8063 0.730115 14.9964 1.26043L18.8621 11.9247L22.7288 1.26043C23.0027 0.509089 23.7195 0.00488281 24.5183 0.00488281Z" fill="#4370FF"/>
<path d="M69.3296 2.49353e-05C70.1239 2.49353e-05 70.8406 0.504232 71.1144 1.25557L76.7565 16.8184C77.1124 17.8078 76.6058 18.9025 75.6199 19.2645C75.41 19.3378 75.1908 19.3792 74.9717 19.3792C74.1775 19.3792 73.4608 18.875 73.1869 18.1237L69.3197 7.46046L65.4545 18.1237C65.2625 18.6594 64.84 19.0681 64.3258 19.2592C64.3215 19.2608 64.3175 19.2629 64.3132 19.2645C64.3107 19.2654 64.3079 19.2657 64.3053 19.2666C64.1043 19.3387 63.8901 19.3792 63.6697 19.3792C63.6689 19.3792 63.6679 19.3787 63.6671 19.3787C63.6664 19.3787 63.6657 19.3792 63.665 19.3792C63.557 19.3792 63.4505 19.3693 63.3464 19.3515C63.339 19.3502 63.3318 19.3481 63.3244 19.3467C63.2802 19.3387 63.2366 19.3291 63.1934 19.3179C63.1827 19.3151 63.1721 19.312 63.1614 19.309C62.5768 19.1474 62.09 18.7122 61.8755 18.1237L58.0109 7.46675L54.1478 18.1237C53.8785 18.875 53.1572 19.3792 52.363 19.3792C52.1439 19.3792 51.9247 19.3423 51.7148 19.2645C51.2401 19.0904 50.8567 18.742 50.6421 18.2793C50.4276 17.8167 50.4048 17.2993 50.5782 16.8184L56.2198 1.25976C56.4891 0.508509 57.2104 0.00481533 58.0046 0.00474109V2.49353e-05C58.0103 2.49353e-05 58.0161 0.00049914 58.0219 0.000548953L58.0229 2.49353e-05C58.8171 2.49353e-05 59.5338 0.503847 59.8077 1.25505L63.6671 11.902L67.5265 1.25976C67.7958 0.508509 68.5171 0.00481533 69.3113 0.00474109V2.49353e-05C69.3173 2.49353e-05 69.3236 -3.11691e-05 69.3296 2.49353e-05Z" fill="#4370FF"/>
<path d="M98.9952 5.80485C98.9952 2.81324 96.7403 0.353064 93.8463 0.0415335C93.6409 0.0186268 93.4309 0.00488281 93.2209 0.00488281H80.5996C79.5497 0.00488281 78.7007 0.861593 78.7007 1.9153C78.7007 2.96901 79.5543 3.82572 80.5996 3.82572H93.2209C94.3119 3.82572 95.1974 4.7145 95.1974 5.80944C95.1974 6.90438 94.3119 7.78857 93.2255 7.79315H81.6038C80.5539 7.79315 79.7049 8.64986 79.7049 9.70357C79.7049 10.7573 80.5585 11.614 81.6038 11.614H93.2255C94.3165 11.614 95.202 12.5028 95.202 13.5977C95.202 14.6926 94.3165 15.5814 93.2255 15.5814H80.6042C79.5543 15.5814 78.7053 16.4381 78.7053 17.4918C78.7053 18.5455 79.5588 19.4023 80.6042 19.4023H93.2255C93.4355 19.4023 93.6454 19.3885 93.8509 19.3656C96.7449 19.0541 98.9998 16.5893 98.9998 13.6023C98.9998 12.1042 98.4338 10.739 97.5072 9.71274C98.4338 8.68193 98.9998 7.32128 98.9998 5.82318L98.9952 5.80485Z" fill="#4370FF"/>
<path d="M28.3117 5.80485C28.3117 2.81324 30.5666 0.353064 33.4607 0.0415335C33.6661 0.0186268 33.876 0.00488281 34.086 0.00488281H46.7073C47.7572 0.00488281 48.6063 0.861593 48.6063 1.9153C48.6063 2.96901 47.7527 3.82572 46.7073 3.82572H34.086C32.9951 3.82572 32.1095 4.7145 32.1095 5.80944C32.1095 6.90438 32.9951 7.78857 34.0814 7.79315H45.7031C46.753 7.79315 47.602 8.64986 47.602 9.70357C47.602 10.7573 46.7484 11.614 45.7031 11.614H34.0814C32.9905 11.614 32.1049 12.5028 32.1049 13.5977C32.1049 14.6926 32.9905 15.5814 34.0814 15.5814H46.7028C47.7527 15.5814 48.6017 16.4381 48.6017 17.4918C48.6017 18.5455 47.7481 19.4023 46.7028 19.4023H34.0814C33.8715 19.4023 33.6615 19.3885 33.4561 19.3656C30.5621 19.0541 28.3071 16.5893 28.3071 13.6023C28.3071 12.1042 28.8731 10.739 29.7998 9.71274C28.8731 8.68193 28.3071 7.32128 28.3071 5.82318L28.3117 5.80485Z" fill="#26CC15"/>
</svg>
