<svg preserveAspectRatio="none" overflow="visible" style="isolation: isolate; display: block;" width="30" height="18" viewBox="0 0 30 18" fill="none" xmlns="http://www.w3.org/2000/svg">
<g id="Background">
<path id="Fill" d="M0 4C0 1.79086 1.79086 0 4 0H26C28.2091 0 30 1.79086 30 4V14C30 16.2091 28.2091 18 26 18H4C1.79086 18 0 16.2091 0 14V4Z" fill="url(#paint0_linear_0_738)"/>
<g id="Border">
<path fill-rule="evenodd" clip-rule="evenodd" d="M26 0.85H4C2.2603 0.85 0.85 2.2603 0.85 4V14C0.85 15.7397 2.2603 17.15 4 17.15H26C27.7397 17.15 29.15 15.7397 29.15 14V4C29.15 2.2603 27.7397 0.85 26 0.85ZM4 0C1.79086 0 0 1.79086 0 4V14C0 16.2091 1.79086 18 4 18H26C28.2091 18 30 16.2091 30 14V4C30 1.79086 28.2091 0 26 0H4Z" fill="url(#paint1_linear_0_738)" style="mix-blend-mode:overlay"/>
</g>
</g>
<defs>
<linearGradient id="paint0_linear_0_738" x1="14.8624" y1="-1.31693e-08" x2="14.8624" y2="24.6316" gradientUnits="userSpaceOnUse">
<stop stop-color="#23A5A6" stop-opacity="0.6"/>
<stop offset="1" stop-color="#004BFF" stop-opacity="0.2"/>
</linearGradient>
<linearGradient id="paint1_linear_0_738" x1="15" y1="0" x2="15" y2="18" gradientUnits="userSpaceOnUse">
<stop stop-color="white"/>
<stop offset="1" stop-color="white" stop-opacity="0"/>
</linearGradient>
</defs>
</svg>
