<svg preserveAspectRatio="none" overflow="visible" style="display: block;" width="48.6675" height="48.6675" viewBox="0 0 48.6675 48.6675" fill="none" xmlns="http://www.w3.org/2000/svg">
<g id="symbol">
<foreignObject x="0" y="0" width="48.6675" height="48.6675"><div xmlns="http://www.w3.org/1999/xhtml" style="backdrop-filter:blur(1px);clip-path:url(#bgblur_0_0_1369_clip_path);height:100%;width:100%"></div></foreignObject><g id="Ellipse 57" filter="url(#filter0_d_0_1369)" data-figma-bg-blur-radius="2">
<circle cx="24.3338" cy="24.3338" r="22.3338" fill="#FF1500" fill-opacity="0.4" shape-rendering="crispEdges"/>
<circle cx="24.3338" cy="24.3338" r="22.0838" stroke="#FF1500" stroke-width="0.5" shape-rendering="crispEdges"/>
</g>
<foreignObject x="3.56902" y="3.56914" width="41.5294" height="41.5294"><div xmlns="http://www.w3.org/1999/xhtml" style="backdrop-filter:blur(1.5px);clip-path:url(#bgblur_1_0_1369_clip_path);height:100%;width:100%"></div></foreignObject><g id="Ellipse 58" filter="url(#filter1_d_0_1369)" data-figma-bg-blur-radius="3">
<circle cx="24.3337" cy="24.3338" r="17.7647" fill="#FF1500" fill-opacity="0.1" shape-rendering="crispEdges"/>
</g>
<circle id="Ellipse 56" cx="24.3337" cy="24.3337" r="12.8327" fill="url(#paint0_linear_0_1369)" fill-opacity="0.5"/>
<g id="Subtract" filter="url(#filter2_d_0_1369)">
<path d="M24.4651 15.817C24.6781 15.6248 25.0021 15.6248 25.2151 15.817C25.2473 15.8459 28.4558 18.7144 31.551 18.7144C31.8599 18.7147 32.1096 18.965 32.1096 19.274V25.9332C32.1096 31.2035 28.3311 33.3226 25.0393 34.5797C24.9755 34.6042 24.9077 34.6158 24.8401 34.6158C24.7724 34.6158 24.7047 34.6042 24.6409 34.5797C21.349 33.3226 17.5706 31.2035 17.5706 25.9332V19.274C17.5706 18.9649 17.8211 18.7144 18.1301 18.7144C21.2228 18.7142 24.4276 15.8506 24.4651 15.817ZM24.8401 21.2642C22.682 21.2643 20.9261 23.0202 20.926 25.1783C20.926 27.3364 22.682 29.0923 24.8401 29.0924C26.9983 29.0924 28.7542 27.3365 28.7542 25.1783C28.7541 23.0202 26.9983 21.2642 24.8401 21.2642ZM27.428 24.1256C27.5608 24.4509 27.636 24.8058 27.636 25.1783C27.636 26.7199 26.3817 27.9742 24.8401 27.9742C24.3205 27.9742 23.8355 27.8286 23.4182 27.5806L27.428 24.1256ZM24.8401 22.3824C25.4003 22.3824 25.9217 22.5497 26.3596 22.8346L22.2971 26.3346C22.1361 25.9817 22.0442 25.5908 22.0442 25.1783C22.0442 23.6368 23.2985 22.3825 24.8401 22.3824Z" fill="#171c1b"/>
</g>
</g>
<defs>
<filter id="filter0_d_0_1369" x="0" y="0" width="48.6675" height="48.6675" filterUnits="userSpaceOnUse" color-interpolation-filters="sRGB">
<feFlood flood-opacity="0" result="BackgroundImageFix"/>
<feColorMatrix in="SourceAlpha" type="matrix" values="0 0 0 0 0 0 0 0 0 0 0 0 0 0 0 0 0 0 127 0" result="hardAlpha"/>
<feOffset/>
<feGaussianBlur stdDeviation="1"/>
<feComposite in2="hardAlpha" operator="out"/>
<feColorMatrix type="matrix" values="0 0 0 0 1 0 0 0 0 0.0823529 0 0 0 0 0 0 0 0 0.4 0"/>
<feBlend mode="normal" in2="BackgroundImageFix" result="effect1_dropShadow_0_1369"/>
<feBlend mode="normal" in="SourceGraphic" in2="effect1_dropShadow_0_1369" result="shape"/>
</filter>
<clipPath id="bgblur_0_0_1369_clip_path" transform="translate(0 0)"><circle cx="24.3338" cy="24.3338" r="22.3338"/>
</clipPath><filter id="filter1_d_0_1369" x="3.56902" y="3.56914" width="41.5294" height="41.5294" filterUnits="userSpaceOnUse" color-interpolation-filters="sRGB">
<feFlood flood-opacity="0" result="BackgroundImageFix"/>
<feColorMatrix in="SourceAlpha" type="matrix" values="0 0 0 0 0 0 0 0 0 0 0 0 0 0 0 0 0 0 127 0" result="hardAlpha"/>
<feOffset/>
<feGaussianBlur stdDeviation="0.87"/>
<feComposite in2="hardAlpha" operator="out"/>
<feColorMatrix type="matrix" values="0 0 0 0 0 0 0 0 0 0 0 0 0 0 0 0 0 0 0.15 0"/>
<feBlend mode="normal" in2="BackgroundImageFix" result="effect1_dropShadow_0_1369"/>
<feBlend mode="normal" in="SourceGraphic" in2="effect1_dropShadow_0_1369" result="shape"/>
</filter>
<clipPath id="bgblur_1_0_1369_clip_path" transform="translate(-3.56902 -3.56914)"><circle cx="24.3337" cy="24.3338" r="17.7647"/>
</clipPath><filter id="filter2_d_0_1369" x="14.0906" y="12.1928" width="21.4991" height="25.903" filterUnits="userSpaceOnUse" color-interpolation-filters="sRGB">
<feFlood flood-opacity="0" result="BackgroundImageFix"/>
<feColorMatrix in="SourceAlpha" type="matrix" values="0 0 0 0 0 0 0 0 0 0 0 0 0 0 0 0 0 0 127 0" result="hardAlpha"/>
<feOffset/>
<feGaussianBlur stdDeviation="1.74"/>
<feComposite in2="hardAlpha" operator="out"/>
<feColorMatrix type="matrix" values="0 0 0 0 0 0 0 0 0 0 0 0 0 0 0 0 0 0 0.25 0"/>
<feBlend mode="normal" in2="BackgroundImageFix" result="effect1_dropShadow_0_1369"/>
<feBlend mode="normal" in="SourceGraphic" in2="effect1_dropShadow_0_1369" result="shape"/>
</filter>
<linearGradient id="paint0_linear_0_1369" x1="24.3337" y1="11.501" x2="24.3337" y2="37.1664" gradientUnits="userSpaceOnUse">
<stop stop-color="#171c1b"/>
<stop offset="1" stop-color="#171c1b" stop-opacity="0"/>
</linearGradient>
</defs>
</svg>
