<svg preserveAspectRatio="none" overflow="visible" style="display: block;" width="5.68109" height="2.95922" viewBox="0 0 5.68109 2.95922" fill="none" xmlns="http://www.w3.org/2000/svg">
<g id="Clip Path">
<path id="Path" d="M0.00995557 0.830379C-0.0267059 1.08461 0.0387522 1.34301 0.192027 1.54913C0.345302 1.75524 0.573933 1.89231 0.827956 1.93038C2.03372 2.10951 3.21397 2.43109 4.34396 2.88838C4.47071 2.94018 4.60714 2.96405 4.74396 2.95838C4.96619 2.95084 5.17909 2.86717 5.34699 2.72139C5.5149 2.57561 5.62762 2.37657 5.66628 2.1576C5.70494 1.93862 5.6672 1.71301 5.55937 1.51855C5.45154 1.32408 5.28017 1.17257 5.07395 1.08938C4.96395 1.04538 4.85396 1.00138 4.74396 0.960378C3.57245 0.513719 2.35603 0.195196 1.11596 0.010377C0.861753 -0.0271205 0.60306 0.0378865 0.396777 0.191098C0.190495 0.34431 0.0535122 0.573182 0.0159561 0.827378" fill="black"/>
</g>
</svg>
